# xmcd CD database file
#
# Track frame offsets:
#	150
#	39730
#	66768
#	86258
#	142600
#	145740
#
# Disc length: 2328 seconds
#
# Revision: 0
# Processed by: cddbd v1.5.2PL0 Copyright (c) Steve Scherf et al.
# Submitted via: CDex 1.51
#
DISCID=46091606
DTITLE=Solution - Divergence
DYEAR=1973
DGENRE=Jazz
TTITLE0=Second Line
TTITLE1=Divergence
TTITLE2=Fever
TTITLE3=Concentration
TTITLE4=Theme
TTITLE5=New Dimension
EXTD=YEAR: 1973
EXTT0=
EXTT1=
EXTT2=
EXTT3=
EXTT4=
EXTT5=
PLAYORDER=
